<svg width="276" height="391" viewBox="0 0 276 391" fill="none" xmlns="http://www.w3.org/2000/svg">
<path d="M274.634 19.2691C269.45 18.6298 252.569 12.2176 241.409 7.97512C232.841 4.71788 217.984 3.15145 190.295 1.5145C170.379 0.337106 144.277 1.17548 133.841 4.08131C116.224 8.98665 107.11 11.5202 98.2877 14.087C86.7409 17.4466 77.7678 25.7007 69.5912 32.8006C62.3697 39.071 60.1234 49.5672 57.512 57.9844C54.9005 65.743 53.5899 73.4725 51.9663 91.7792C51.6338 104.274 51.6338 127.288 51.6338 151" stroke="black" stroke-width="2" stroke-linecap="round"/>
<path d="M50.6895 143.5C69.9511 143.5 85.6387 159.577 85.6387 179.5C85.6387 199.423 69.9511 215.5 50.6895 215.5C31.428 215.5 15.7412 199.423 15.7412 179.5C15.7412 159.577 31.428 143.5 50.6895 143.5Z" fill="white" stroke="black" stroke-width="3"/>
<line x1="49.7039" y1="347.138" x2="49.7039" y2="217" stroke="black"/>
<line y1="-0.5" x2="69.3658" y2="-0.5" transform="matrix(-0.784679 -0.619902 0.598115 -0.80141 104.634 265)" stroke="black"/>
<line y1="-0.5" x2="69.3658" y2="-0.5" transform="matrix(-0.784679 -0.619902 0.598115 -0.80141 104.634 390)" stroke="black"/>
<line y1="-0.5" x2="65.6216" y2="-0.5" transform="matrix(0.755393 -0.655272 0.633847 0.773458 0.633789 265)" stroke="black"/>
<line y1="-0.5" x2="65.6216" y2="-0.5" transform="matrix(0.755393 -0.655272 0.633847 0.773458 0.633789 390)" stroke="black"/>
<path d="M35.6244 152C34.4969 152 32.2323 152.33 30.5265 153.66C28.6886 155.093 29.7926 158.32 29.3893 161.648C28.8524 166.076 29.467 169.495 29.9506 170.41C31.0269 172.447 33.6708 173.16 35.6973 173.997C38.5119 175.161 41.9324 174.17 44.2822 173.503C46.3355 172.919 48.2502 172.17 49.6328 170.093C50.9111 168.172 50.5246 165.51 50.6096 158.528C50.6282 157.003 50.3691 156.51 50.0459 156.09C48.6473 154.272 46.3257 153.67 43.976 152.92C41.947 152 40.4891 151.835 39.279 151.502C38.55 151.335 37.5878 151.17 35.6244 151" stroke="black" stroke-width="2" stroke-linecap="round"/>
<path d="M62.8393 149.5C61.8722 149.5 59.6124 150.49 57.4207 151.662C54.9149 153.003 53.6154 155.49 52.6362 157.658C51.4419 160.301 51.6618 163.15 51.2584 166.903C50.9279 169.977 51.9825 171.99 52.3081 173.993C52.6719 176.23 55.5399 176.5 57.5665 177.495C59.9909 178.685 62.4992 180.49 68.0831 180.917C71.3297 181.166 73.2005 178.51 74.9014 176.507C76.8832 174.174 77.7395 170.51 77.4236 161.623C77.1702 154.491 73.2199 152.68 71.0281 151.503C69.818 151.17 68.676 150.67 67.5461 150.17C66.8973 150 66.0954 150 64.7833 149.5" stroke="black" stroke-width="2" stroke-linecap="round"/>
<path d="M68.1851 154C67.8644 154 67.218 154.33 66.4089 155.077C64.8956 156.475 65.2692 158.495 65.59 159.245C65.7532 159.627 66.5522 159.5 67.0431 159.17C67.5339 158.84 67.8547 158.18 68.0199 157.592C68.1851 157.005 68.1851 156.51 67.9446 156.09C67.704 155.67 67.2229 155.34 66.3335 155.17C65.4442 155 64.1612 155 63.5003 155.907C62.8393 156.815 62.8393 158.63 63.1601 159.647C63.4808 160.665 64.1223 160.83 64.7735 160.832C65.4248 160.835 66.0663 160.67 66.4769 160.172C67.3874 159.069 67.2132 156.68 66.9726 154.597C66.8807 153.801 66.2509 153.67 65.6823 153.585C65.1137 153.5 64.4722 153.5 63.9814 153.747C63.0062 154.239 62.679 155.495 62.5162 156.492C62.4353 156.988 62.6741 157.49 63.0775 157.992C63.9851 159.123 65.7455 159.665 67.444 159.915C68.1774 160.023 68.6614 160 68.9092 159.67C70.2199 157.925 69.6431 155.675 69.4025 154.26C69.2954 153.63 68.6808 153.34 67.9519 153.17C67.2229 153 66.2607 153 65.6848 153.33C64.6263 153.937 64.7833 155.99 65.104 157.49C65.4248 158 66.0663 158 66.076 158C66.0857 158 65.4442 158 64.7833 158" stroke="black" stroke-width="2" stroke-linecap="round"/>
<path d="M37.0824 162.5C33.8506 163.495 31.2604 164.83 29.7951 166.41C28.3104 168.011 34.1568 168 35.6949 167.752C36.3116 167.653 36.4312 167.01 36.1931 166.59C35.9549 166.17 35.3134 165.84 34.6622 165.67C34.011 165.5 33.3695 165.5 32.9589 165.747C32.5482 165.995 32.3878 166.49 32.626 166.91C32.8641 167.33 33.5056 167.66 34.1568 167.83C34.808 168 35.4495 168 36.1007 167.752C36.752 167.505 37.3934 167.01 37.8843 166.507C38.7806 165.59 39.0263 162.195 38.7056 158.027C38.598 156.63 37.7434 156.83 37.2525 157.245C34.5476 159.532 35.1482 164.66 32.9589 166.492C32.4639 166.907 32.3878 167.49 32.5458 167.827C32.7037 168.165 33.1849 168.33 33.8336 168.332C35.2929 168.338 36.9123 167.175 38.448 165.1C39.3079 163.938 39.8234 162.2 39.9133 161.185C40.0032 160.17 39.522 159.84 39.0336 160.33C38.5452 160.82 38.0641 162.14 37.4955 163.067C36.9269 163.995 36.2854 164.49 35.6245 165.5" stroke="black" stroke-width="2" stroke-linecap="round"/>
<path d="M23.9609 180C24.1213 180.995 24.7677 183.32 25.0933 185.575C25.4589 188.107 26.2256 189.99 26.5512 191.993C26.959 194.501 29.1415 196.49 30.6772 198.077C32.2153 199.668 34.1568 200.33 37.3935 203.155C39.6702 205.142 41.9325 205.33 52.1065 205.335C56.6599 205.337 58.4559 202.84 60.4022 202.003C62.3469 201.166 64.2877 200.17 65.9108 197.845C68.6571 193.911 69.3127 189.51 70.1267 187.01C70.4499 185.68 70.7755 184.505 71.0185 183.507C71.1011 183.005 71.1011 182.51 71.1011 182" stroke="black" stroke-width="2" stroke-linecap="round"/>
<path d="M24.4469 181C25.414 181.165 27.6738 182.49 29.7854 183.912C31.5249 185.084 33.6708 185.33 40.4576 185.418C41.9374 185.335 42.4185 185.17 42.9871 185.085C43.5557 185 44.1972 185 44.8581 185" stroke="white" stroke-width="2" stroke-linecap="round"/>
<path d="M27.3628 184.5C28.3299 184.5 30.269 185.16 44.7196 185.335C50.3497 184.5 54.8888 184.17 64.3411 184.083C66.3968 184.165 67.0383 184.33 67.6992 184.5" stroke="black" stroke-width="2" stroke-linecap="round"/>
</svg>
